{"asset":{"version":"2.0","generator":"babylon.js glTF exporter for Maya 2018 v20200305.4"},"scene":0,"scenes":[{"nodes":[0]}],"nodes":[{"mesh":0,"name":"RS_Flower_POT:pot_plant_renderman1:plant_pot"}],"meshes":[{"primitives":[{"attributes":{"POSITION":1,"TANGENT":2,"NORMAL":3,"TEXCOORD_0":4},"indices":0,"material":0}],"name":"RS_Flower_POT:pot_plant_renderman1:plant_pot"}],"accessors":[{"bufferView":0,"componentType":5123,"count":4464,"type":"SCALAR","name":"accessorIndices"},{"bufferView":1,"componentType":5126,"count":799,"max":[0.07327313,0.24454771,0.07327313],"min":[-0.07327313,0.099707,-0.07327313],"type":"VEC3","name":"accessorPositions"},{"bufferView":2,"componentType":5126,"count":799,"type":"VEC4","name":"accessorTangents"},{"bufferView":1,"byteOffset":9588,"componentType":5126,"count":799,"type":"VEC3","name":"accessorNormals"},{"bufferView":3,"componentType":5126,"count":799,"type":"VEC2","name":"accessorUVs"}],"bufferViews":[{"buffer":0,"byteLength":8928,"name":"bufferViewScalar"},{"buffer":0,"byteOffset":8928,"byteLength":19176,"byteStride":12,"name":"bufferViewFloatVec3"},{"buffer":0,"byteOffset":28104,"byteLength":12784,"byteStride":16,"name":"bufferViewFloatVec4"},{"buffer":0,"byteOffset":40888,"byteLength":6392,"byteStride":8,"name":"bufferViewFloatVec2"}],"buffers":[{"uri":"flowerpot.bin","byteLength":47280}],"materials":[{"pbrMetallicRoughness":{"baseColorFactor":[0.324,0.151509315,0.074844,1.0],"metallicFactor":0.0,"roughnessFactor":0.201679826},"name":"blinn1"}]}